# Blender 5.1.1
# www.blender.org
mtllib dziura.mtl
o Cube
v -0.100000 -2.000000 -1.000000
v -0.100000 -2.000000 1.000000
v -0.100000 2.000000 -1.000000
v -0.100000 2.000000 1.000000
v 0.100000 -2.000000 -1.000000
v 0.100000 -2.000000 1.000000
v 0.100000 2.000000 -1.000000
v 0.100000 2.000000 1.000000
v -0.100000 0.720583 0.395833
v -0.100000 0.794073 0.490497
v -0.100000 0.883621 0.568186
v -0.100000 0.985785 0.625915
v -0.100000 1.211924 0.673467
v -0.100000 1.096639 0.661464
v -0.100000 0.620993 0.048769
v -0.100000 0.632348 -0.073104
v -0.100000 0.632348 0.170641
v -0.100000 0.720583 -0.298295
v -0.100000 0.665975 -0.190293
v -0.100000 0.665975 0.287830
v -0.100000 0.985785 -0.528377
v -0.100000 1.211924 -0.575930
v -0.100000 1.096639 -0.563926
v -0.100000 0.883621 -0.470649
v -0.100000 0.794073 -0.392960
v -0.100000 1.395494 -0.542029
v -0.100000 1.438064 -0.528377
v -0.100000 1.438064 0.625915
v -0.100000 1.540228 0.568186
v -0.100000 1.802855 0.048769
v -0.100000 1.791501 -0.073104
v -0.100000 1.791501 0.170641
v -0.100000 1.703265 -0.298295
v -0.100000 1.757873 -0.190293
v -0.100000 1.757873 0.287830
v -0.100000 1.703265 0.395833
v -0.100000 1.540228 -0.470649
v -0.100000 1.629776 -0.392960
v -0.100000 1.629776 0.490497
v -0.100000 1.327209 -0.563926
v -0.100000 1.327209 0.661464
v 0.100000 0.620993 0.048769
v 0.100000 0.632348 -0.073104
v 0.100000 0.632348 0.170641
v 0.100000 0.720583 -0.298295
v 0.100000 0.665975 -0.190293
v 0.100000 0.665975 0.287830
v 0.100000 0.720583 0.395833
v 0.100000 1.096639 0.661464
v 0.100000 1.211924 -0.575930
v 0.100000 1.211924 0.673467
v 0.100000 0.985785 0.625915
v 0.100000 0.794073 -0.392960
v 0.100000 0.794073 0.490497
v 0.100000 0.883621 0.568186
v 0.100000 1.438064 -0.528377
v 0.100000 1.540228 -0.470649
v 0.100000 1.438064 0.625915
v 0.100000 1.802855 0.048769
v 0.100000 1.791501 -0.073104
v 0.100000 1.791501 0.170641
v 0.100000 1.703265 -0.298295
v 0.100000 1.757873 -0.190293
v 0.100000 1.757873 0.287830
v 0.100000 1.703265 0.395833
v 0.100000 1.327209 -0.563926
v 0.100000 1.629776 -0.392960
v 0.100000 1.629776 0.490497
v 0.100000 1.540228 0.568186
v 0.100000 1.327209 0.661464
v 0.100000 0.883621 -0.470649
v 0.100000 1.096639 -0.563926
v 0.100000 0.985785 -0.528377
vn -1.0000 -0.0000 -0.0000
vn -0.0000 1.0000 -0.0000
vn 1.0000 -0.0000 -0.0000
vn -0.0000 -1.0000 -0.0000
vn -0.0000 -0.0000 -1.0000
vn -0.0000 -0.0000 1.0000
vn -0.0000 -0.9957 0.0928
vn -0.0000 -0.9612 0.2758
vn -0.0000 -0.8924 0.4512
vn -0.0000 -0.7899 0.6132
vn -0.0000 -0.6553 0.7553
vn -0.0000 -0.4919 0.8706
vn -0.0000 -0.3054 0.9522
vn -0.0000 -0.1036 0.9946
vn -0.0000 0.1036 0.9946
vn -0.0000 0.3054 0.9522
vn -0.0000 0.4919 0.8706
vn -0.0000 0.6553 0.7553
vn -0.0000 0.7899 0.6132
vn -0.0000 0.8924 0.4512
vn -0.0000 0.9612 0.2758
vn -0.0000 0.9957 0.0928
vn -0.0000 0.9957 -0.0928
vn -0.0000 0.9612 -0.2758
vn -0.0000 0.8924 -0.4512
vn -0.0000 0.7899 -0.6132
vn -0.0000 0.6553 -0.7553
vn -0.0000 0.4919 -0.8706
vn -0.0000 0.3054 -0.9522
vn -0.0000 0.1036 -0.9946
vn -0.0000 -0.1036 -0.9946
vn -0.0000 -0.3054 -0.9522
vn -0.0000 -0.4919 -0.8706
vn -0.0000 -0.6553 -0.7553
vn -0.0000 -0.7899 -0.6132
vn -0.0000 -0.8924 -0.4512
vn -0.0000 -0.9612 -0.2758
vn -0.0000 -0.9957 -0.0928
vt 0.578239 0.214879
vt 0.625000 0.250000
vt 0.375000 0.250000
vt 0.432246 0.212218
vt 0.433953 0.214879
vt 0.441169 0.221264
vt 0.450880 0.226861
vt 0.462713 0.231454
vt 0.476213 0.234867
vt 0.490862 0.236969
vt 0.506096 0.237678
vt 0.521330 0.236969
vt 0.535979 0.234867
vt 0.549479 0.231454
vt 0.561312 0.226861
vt 0.571023 0.221264
vt 0.375000 0.000000
vt 0.625000 0.000000
vt 0.582683 0.207951
vt 0.584183 0.200745
vt 0.582683 0.193540
vt 0.578239 0.186612
vt 0.571023 0.180226
vt 0.561312 0.174630
vt 0.549479 0.170036
vt 0.535979 0.166623
vt 0.521330 0.164522
vt 0.506096 0.163812
vt 0.490862 0.164522
vt 0.476213 0.166623
vt 0.462713 0.170036
vt 0.450880 0.174630
vt 0.441169 0.180226
vt 0.433953 0.186612
vt 0.429509 0.193540
vt 0.428009 0.200745
vt 0.429509 0.207951
vt 0.625000 0.500000
vt 0.375000 0.500000
vt 0.433953 0.535121
vt 0.578239 0.535121
vt 0.571023 0.528736
vt 0.561312 0.523139
vt 0.549479 0.518546
vt 0.535979 0.515133
vt 0.521330 0.513031
vt 0.506096 0.512322
vt 0.490862 0.513031
vt 0.476213 0.515133
vt 0.462713 0.518546
vt 0.450880 0.523139
vt 0.441169 0.528736
vt 0.625000 0.750000
vt 0.375000 0.750000
vt 0.429509 0.542049
vt 0.428009 0.549255
vt 0.429509 0.556460
vt 0.433953 0.563388
vt 0.441169 0.569774
vt 0.450880 0.575370
vt 0.462713 0.579964
vt 0.476213 0.583377
vt 0.490862 0.585478
vt 0.506096 0.586188
vt 0.521330 0.585478
vt 0.535979 0.583377
vt 0.549479 0.579964
vt 0.561312 0.575370
vt 0.571023 0.569774
vt 0.578239 0.563388
vt 0.582683 0.556460
vt 0.584183 0.549255
vt 0.582683 0.542049
vt 0.625000 1.000000
vt 0.375000 1.000000
vt 0.125000 0.500000
vt 0.125000 0.750000
vt 0.875000 0.500000
vt 0.875000 0.750000
vt 1.000000 0.692007
vt 0.968750 0.692007
vt 0.968750 0.862302
vt 1.000000 0.862302
vt 0.937500 0.692007
vt 0.937500 0.862302
vt 0.906250 0.692007
vt 0.906250 0.862302
vt 0.875000 0.692007
vt 0.875000 0.862302
vt 0.843750 0.692007
vt 0.843750 0.862302
vt 0.812500 0.692007
vt 0.812500 0.862302
vt 0.800500 0.692007
vt 0.781250 0.692007
vt 0.781250 0.862302
vt 0.750000 0.692007
vt 0.750000 0.862302
vt 0.718750 0.692007
vt 0.718750 0.862302
vt 0.687500 0.692007
vt 0.687500 0.862302
vt 0.656250 0.692007
vt 0.656250 0.862302
vt 0.625000 0.692007
vt 0.625000 0.862302
vt 0.593750 0.692007
vt 0.593750 0.862302
vt 0.562500 0.692007
vt 0.562500 0.862302
vt 0.531250 0.692007
vt 0.531250 0.862302
vt 0.500000 0.692007
vt 0.500000 0.862302
vt 0.468750 0.692007
vt 0.468750 0.862302
vt 0.437500 0.692007
vt 0.437500 0.862302
vt 0.406250 0.692007
vt 0.406250 0.862302
vt 0.375000 0.692007
vt 0.375000 0.862302
vt 0.343750 0.692007
vt 0.343750 0.862302
vt 0.312500 0.692007
vt 0.312500 0.862302
vt 0.281250 0.692007
vt 0.281250 0.862302
vt 0.250000 0.692007
vt 0.250000 0.862302
vt 0.218750 0.692007
vt 0.218750 0.862302
vt 0.187500 0.692007
vt 0.187500 0.862302
vt 0.156250 0.692007
vt 0.156250 0.862302
vt 0.125000 0.692007
vt 0.125000 0.862302
vt 0.093750 0.692007
vt 0.093750 0.862302
vt 0.062500 0.692007
vt 0.062500 0.862302
vt 0.031250 0.692007
vt 0.031250 0.862302
vt 0.000000 0.692007
vt 0.000000 0.862302
s 0
usemtl steel
f 28/1/1 4/2/1 3/3/1 26/4/1 27/5/1 37/6/1 38/7/1 33/8/1 34/9/1 31/10/1 30/11/1 32/12/1 35/13/1 36/14/1 39/15/1 29/16/1
f 3/3/1 1/17/1 2/18/1 4/2/1 28/1/1 41/19/1 13/20/1 14/21/1 12/22/1 11/23/1 10/24/1 9/25/1 20/26/1 17/27/1 15/28/1 16/29/1 19/30/1 18/31/1 25/32/1 24/33/1 21/34/1 23/35/1 22/36/1 40/37/1 26/4/1
f 3/3/2 4/2/2 8/38/2 7/39/2
f 56/40/3 7/39/3 8/38/3 58/41/3 69/42/3 68/43/3 65/44/3 64/45/3 61/46/3 59/47/3 60/48/3 63/49/3 62/50/3 67/51/3 57/52/3
f 58/41/3 8/38/3 6/53/3 5/54/3 7/39/3 56/40/3 66/55/3 50/56/3 72/57/3 73/58/3 71/59/3 53/60/3 45/61/3 46/62/3 43/63/3 42/64/3 44/65/3 47/66/3 48/67/3 54/68/3 55/69/3 52/70/3 49/71/3 51/72/3 70/73/3
f 5/54/4 6/53/4 2/74/4 1/75/4
f 3/76/5 7/39/5 5/54/5 1/77/5
f 8/38/6 4/78/6 2/79/6 6/53/6
f 30/80/7 31/81/7 60/82/7 59/83/7
f 31/81/8 34/84/8 63/85/8 60/82/8
f 34/84/9 33/86/9 62/87/9 63/85/9
f 33/86/10 38/88/10 67/89/10 62/87/10
f 38/88/11 37/90/11 57/91/11 67/89/11
f 37/90/12 27/92/12 56/93/12 57/91/12
f 27/92/13 26/94/13 40/95/13 66/96/13 56/93/13
f 40/95/14 22/97/14 50/98/14 66/96/14
f 22/97/15 23/99/15 72/100/15 50/98/15
f 23/99/16 21/101/16 73/102/16 72/100/16
f 24/103/17 71/104/17 73/102/17 21/101/17
f 25/105/18 53/106/18 71/104/18 24/103/18
f 18/107/19 45/108/19 53/106/19 25/105/19
f 19/109/20 46/110/20 45/108/20 18/107/20
f 16/111/21 43/112/21 46/110/21 19/109/21
f 15/113/22 42/114/22 43/112/22 16/111/22
f 17/115/23 44/116/23 42/114/23 15/113/23
f 20/117/24 47/118/24 44/116/24 17/115/24
f 9/119/25 48/120/25 47/118/25 20/117/25
f 10/121/26 54/122/26 48/120/26 9/119/26
f 11/123/27 55/124/27 54/122/27 10/121/27
f 12/125/28 52/126/28 55/124/28 11/123/28
f 14/127/29 49/128/29 52/126/29 12/125/29
f 13/129/30 51/130/30 49/128/30 14/127/30
f 41/131/31 70/132/31 51/130/31 13/129/31
f 28/133/32 58/134/32 70/132/32 41/131/32
f 28/133/33 29/135/33 69/136/33 58/134/33
f 29/135/34 39/137/34 68/138/34 69/136/34
f 39/137/35 36/139/35 65/140/35 68/138/35
f 36/139/36 35/141/36 64/142/36 65/140/36
f 35/141/37 32/143/37 61/144/37 64/142/37
f 32/143/38 30/145/38 59/146/38 61/144/38
